#!OML:ASF E:\Steps\Project 1\Capture day 1\Session 2\Subject.ASF
:FULLY-SPECIFIED
:DEGREES
185
root 7.94447 16.2147 31.2308 -155.005 -2.26814 177.848
lowerback -27.0037 -2.19786 -5.97396
upperback -0.998019 -1.483 -0.312598
thorax 14.1466 -1.25808 2.46382
lowerneck -6.47125 -3.13595 -0.976479
upperneck 19.1558 -3.55634 1.41313
head 6.95195 -1.30559 0.381417
rclavicle -5.66536e-015 -2.0276e-014
rhumerus -38.7765 -23.3315 -74.1016
rradius 28.1187
rwrist 2.07175
rhand -9.52877 -51.9191
rfingers 7.12502
rthumb 16.4374 -81.2427
lclavicle -5.66536e-015 -2.0276e-014
lhumerus -29.0907 4.75067 81.6463
lradius 25.3163
lwrist -3.93654
lhand -19.0883 -14.2492
lfingers 7.12502
lthumb 7.21993 15.6076
rfemur -23.4134 5.6456 21.9073
rtibia 10.8583
rfoot -22.8719 -5.00721
rtoes -19.2952
lfemur -37.8169 -10.1275 -17.8401
ltibia 36.1195
lfoot -13.5337 3.76799
ltoes -40.5926
186
root 7.95794 16.2114 31.2267 -154.989 -2.39017 178.221
lowerback -26.8056 -2.07872 -5.60669
upperback -0.990312 -1.45554 -0.202912
thorax 14.039 -1.21848 2.39556
lowerneck -6.18262 -2.02621 -1.10981
upperneck 18.8391 -3.96987 1.76308
head 6.81278 -2.22223 0.401431
rclavicle -4.96962e-017 -1.66979e-014
rhumerus -38.7709 -23.0743 -74.2221
rradius 28.3621
rwrist 1.89711
rhand -9.51871 -52.2102
rfingers 7.12502
rthumb 16.4471 -81.533
lclavicle -4.96962e-017 -1.66979e-014
lhumerus -29.0289 4.84025 81.6361
lradius 25.4076
lwrist -4.1689
lhand -18.7501 -14.374
lfingers 7.12502
lthumb 7.54632 15.4714
rfemur -23.4067 5.87018 22.3994
rtibia 10.8013
rfoot -22.8598 -5.1729
rtoes -19.5932
lfemur -38.8808 -9.89984 -17.3616
ltibia 37.8674
lfoot -13.2018 3.65658
ltoes -39.2576
187
root 7.96836 16.2118 31.2217 -154.97 -2.33659 178.29
lowerback -26.5907 -2.0021 -5.57251
upperback -1.01778 -1.38179 -0.169452
thorax 13.8819 -1.17949 2.44782
lowerneck -6.52856 -1.98625 -1.04751
upperneck 19.1135 -3.93107 1.74098
head 6.96026 -2.19868 0.378827
rclavicle 2.43511e-015 -1.98785e-014
rhumerus -38.8127 -22.7909 -74.2827
rradius 28.5332
rwrist 1.7381
rhand -9.51948 -51.897
rfingers 7.12502
rthumb 16.4463 -81.2198
lclavicle 2.43511e-015 -1.98785e-014
lhumerus -29.0654 5.0182 81.6354
lradius 25.4381
lwrist -4.49517
lhand -18.5225 -14.6165
lfingers 7.12502
lthumb 7.76601 15.2208
rfemur -23.4857 5.75359 22.5504
rtibia 10.9375
rfoot -22.9403 -5.09751
rtoes -20.4157
lfemur -39.8529 -9.75774 -17.2962
ltibia 39.4943
lfoot -12.9557 3.90353
ltoes -40.8642
188
root 7.97882 16.2141 31.2093 -155.026 -2.16658 178.109
lowerback -26.465 -2.02494 -5.8292
upperback -0.980857 -1.33484 -0.167405
thorax 13.8588 -1.17305 2.61789
lowerneck -6.41459 -1.97051 -1.16217
upperneck 19.01 -3.9013 1.81528
head 6.90971 -2.18625 0.427002
rclavicle -3.97569e-016 9.34288e-015
rhumerus -38.6992 -22.6581 -74.2251
rradius 28.4275
rwrist 1.96539
rhand -9.56632 -51.4051
rfingers 7.12502
rthumb 16.4012 -80.7316
lclavicle -3.97569e-016 9.34288e-015
lhumerus -29.1143 5.31905 81.626
lradius 25.4434
lwrist -4.75791
lhand -18.6751 -14.8653
lfingers 7.12502
lthumb 7.61873 14.9775
rfemur -23.4241 5.52481 22.411
rtibia 11.0225
rfoot -23.0051 -4.96678
rtoes -20.9308
lfemur -40.6134 -9.63075 -17.5898
ltibia 40.8838
lfoot -12.8375 4.41197
ltoes -43.8292
189
root 7.98944 16.2159 31.1924 -155.141 -2.00494 177.872
lowerback -26.3541 -2.07424 -6.12182
upperback -0.850241 -1.29473 -0.177661
thorax 13.9566 -1.17159 2.7908
lowerneck -6.49926 -1.92004 -1.2796
upperneck 18.9581 -3.80528 1.85118
head 6.90909 -2.1393 0.465409
rclavicle 3.926e-015 -6.75868e-015
rhumerus -38.374 -22.3384 -74.3401
rradius 28.4354
rwrist 1.92527
rhand -9.4409 -51.2077
rfingers 7.12502
rthumb 16.522 -80.5243
lclavicle 3.926e-015 -6.75868e-015
lhumerus -29.0929 5.40067 81.7508
lradius 25.6013
lwrist -4.6028
lhand -19.2381 -15.0836
lfingers 7.12502
lthumb 7.07527 14.7782
rfemur -23.1906 5.37507 22.2074
rtibia 10.9537
rfoot -23.0462 -4.85119
rtoes -21.4509
lfemur -41.187 -9.50602 -17.9355
ltibia 41.9684
lfoot -12.7303 4.42435
ltoes -43.6108
190
root 7.99938 16.2091 31.1767 -155.259 -2.01283 178.045
lowerback -26.2665 -1.99398 -5.97638
upperback -0.726318 -1.22264 -0.107449
thorax 14.0481 -1.12811 2.8174
lowerneck -6.60555 -1.90953 -1.19149
upperneck 19.0129 -3.77214 1.70836
head 6.94068 -2.12604 0.405684
rclavicle 6.95746e-015 2.04748e-014
rhumerus -38.1314 -22.0065 -74.5389
rradius 28.6083
rwrist 1.79186
rhand -9.29431 -51.441
rfingers 7.12502
rthumb 16.6631 -80.7458
lclavicle 6.95746e-015 2.04748e-014
lhumerus -29.0876 5.02368 82.0016
lradius 25.8173
lwrist -4.09393
lhand -19.9361 -14.5338
lfingers 7.12502
lthumb 6.40151 15.3494
rfemur -22.906 5.33041 22.5249
rtibia 10.8043
rfoot -23.0467 -4.70302
rtoes -21.4531
lfemur -41.8376 -9.28578 -17.7899
ltibia 43.0496
lfoot -12.8342 4.19948
ltoes -42.8641
191
root 8.00759 16.2026 31.1599 -155.3 -1.98826 178.242
lowerback -26.2966 -1.87445 -5.78572
upperback -0.595982 -1.10497 -0.0520776
thorax 14.2068 -1.06315 2.81635
lowerneck -6.54007 -1.95534 -1.25732
upperneck 18.8909 -3.82319 1.76734
head 6.89292 -2.14678 0.434004
rclavicle -2.88238e-015 5.56597e-015
rhumerus -37.8753 -22.0587 -74.5787
rradius 28.5887
rwrist 2.12103
rhand -9.4338 -51.997
rfingers 7.12502
rthumb 16.5288 -81.3131
lclavicle -2.88238e-015 5.56597e-015
lhumerus -28.9734 4.70026 82.1708
lradius 25.9195
lwrist -3.76533
lhand -20.2308 -13.8754
lfingers 7.12502
lthumb 6.11695 16.0163
rfemur -22.749 5.31857 22.8409
rtibia 10.7634
rfoot -23.1315 -4.50073
rtoes -20.9137
lfemur -42.5647 -9.05009 -17.6386
ltibia 43.9666
lfoot -13.0986 4.14322
ltoes -43.6504
192
root 8.01593 16.2008 31.1454 -155.239 -1.81575 178.225
lowerback -26.2821 -1.79997 -5.80096
upperback -0.561143 -0.995076 -0.0729177
thorax 14.2296 -1.01355 2.843
lowerneck -6.53434 -1.96547 -1.38393
upperneck 18.839 -3.8393 1.90919
head 6.88053 -2.14951 0.500029
rclavicle -1.2424e-015 -1.98785e-015
rhumerus -37.7223 -21.9055 -74.681
rradius 28.6395
rwrist 2.20298
rhand -9.64565 -52.2433
rfingers 7.12502
rthumb 16.3249 -81.5762
lclavicle -1.2424e-015 -1.98785e-015
lhumerus -28.9358 4.75725 82.1595
lradius 25.9032
lwrist -3.74327
lhand -20.2094 -13.8518
lfingers 7.12502
lthumb 6.13766 16.0393
rfemur -22.776 5.30087 22.8643
rtibia 10.8113
rfoot -23.2535 -4.28212
rtoes -20.8738
lfemur -43.3398 -8.76625 -17.7234
ltibia 44.6148
lfoot -13.3281 3.86335
ltoes -42.6515
